<svg xmlns="http://www.w3.org/2000/svg" xmlns:xlink="http://www.w3.org/1999/xlink" version="1.1" baseProfile="full" viewBox="0 0 720 400">
<rect width="720" height="400" x="0" y="0" fill="none"></rect>
<path d="M16 384.5L704 384.5" fill="none" pointer-events="visible" stroke="#e4e1d7" class="t-pareto-cls-1553"></path>
<path d="M16 310.5L704 310.5" fill="none" pointer-events="visible" stroke="#e4e1d7" class="t-pareto-cls-1553"></path>
<path d="M16 237.5L704 237.5" fill="none" pointer-events="visible" stroke="#e4e1d7" class="t-pareto-cls-1553"></path>
<path d="M16 163.5L704 163.5" fill="none" pointer-events="visible" stroke="#e4e1d7" class="t-pareto-cls-1553"></path>
<path d="M16 89.5L704 89.5" fill="none" pointer-events="visible" stroke="#e4e1d7" class="t-pareto-cls-1553"></path>
<path d="M16 16.5L704 16.5" fill="none" pointer-events="visible" stroke="#e4e1d7" class="t-pareto-cls-1553"></path>
<path d="M16 384.5L704 384.5" fill="none" pointer-events="visible" stroke="#c9c6bb" stroke-linecap="round" class="t-pareto-cls-1553"></path>
<path d="M38.1 80.8L79.9 80.8A4 4 0 0 1 83.9 84.8L83.9 384L34.1 384L34.1 84.8A4 4 0 0 1 38.1 80.8Z" fill="#478809" ecmeta_series_index="0" ecmeta_data_index="0" ecmeta_ssr_type="chart" class="t-pareto-cls-1554"></path>
<path d="M124.1 186.8L165.9 186.8A4 4 0 0 1 169.9 190.8L169.9 384L120.1 384L120.1 190.8A4 4 0 0 1 124.1 186.8Z" fill="#478809" ecmeta_series_index="0" ecmeta_data_index="1" ecmeta_ssr_type="chart" class="t-pareto-cls-1554"></path>
<path d="M210.1 275.8L251.9 275.8A4 4 0 0 1 255.9 279.8L255.9 384L206.1 384L206.1 279.8A4 4 0 0 1 210.1 275.8Z" fill="#478809" ecmeta_series_index="0" ecmeta_data_index="2" ecmeta_ssr_type="chart" class="t-pareto-cls-1554"></path>
<path d="M296.1 313.3L337.9 313.3A4 4 0 0 1 341.9 317.3L341.9 384L292.1 384L292.1 317.3A4 4 0 0 1 296.1 313.3Z" fill="#478809" ecmeta_series_index="0" ecmeta_data_index="3" ecmeta_ssr_type="chart" class="t-pareto-cls-1554"></path>
<path d="M382.1 339.1L423.9 339.1A4 4 0 0 1 427.9 343.1L427.9 384L378.1 384L378.1 343.1A4 4 0 0 1 382.1 339.1Z" fill="#478809" ecmeta_series_index="0" ecmeta_data_index="4" ecmeta_ssr_type="chart" class="t-pareto-cls-1554"></path>
<path d="M468.1 356L509.9 356A4 4 0 0 1 513.9 360L513.9 384L464.1 384L464.1 360A4 4 0 0 1 468.1 356Z" fill="#478809" ecmeta_series_index="0" ecmeta_data_index="5" ecmeta_ssr_type="chart" class="t-pareto-cls-1554"></path>
<path d="M554.1 367.8L595.9 367.8A4 4 0 0 1 599.9 371.8L599.9 384L550.1 384L550.1 371.8A4 4 0 0 1 554.1 367.8Z" fill="#478809" ecmeta_series_index="0" ecmeta_data_index="6" ecmeta_ssr_type="chart" class="t-pareto-cls-1554"></path>
<path d="M640.1 373.7L681.9 373.7A4 4 0 0 1 685.9 377.7L685.9 384L636.1 384L636.1 377.7A4 4 0 0 1 640.1 373.7Z" fill="#478809" ecmeta_series_index="0" ecmeta_data_index="7" ecmeta_ssr_type="chart" class="t-pareto-cls-1554"></path>
<g clip-path="url(#t-pareto-c0)">
<path d="M59 240.8L145 147.4L231 96.2L317 63.1L403 41.8L489 28.5L575 20.8L661 16" fill="none" pointer-events="visible" stroke="#be7100" stroke-width="2.5" stroke-linejoin="bevel" class="t-pareto-cls-1556"></path>
</g>
<path d="M1 0A1 1 0 1 1 1 -0.1A1 1 0 0 1 1 0" transform="matrix(4,0,0,4,59,240.848)" fill="#be7100" ecmeta_series_index="1" ecmeta_data_index="0" ecmeta_ssr_type="chart" class="t-pareto-cls-1557"></path>
<path d="M1 0A1 1 0 1 1 1 -0.1A1 1 0 0 1 1 0" transform="matrix(4,0,0,4,145,147.376)" fill="#be7100" ecmeta_series_index="1" ecmeta_data_index="1" ecmeta_ssr_type="chart" class="t-pareto-cls-1557"></path>
<path d="M1 0A1 1 0 1 1 1 -0.1A1 1 0 0 1 1 0" transform="matrix(4,0,0,4,231,96.224)" fill="#be7100" ecmeta_series_index="1" ecmeta_data_index="2" ecmeta_ssr_type="chart" class="t-pareto-cls-1557"></path>
<path d="M1 0A1 1 0 1 1 1 -0.1A1 1 0 0 1 1 0" transform="matrix(4,0,0,4,317,63.104)" fill="#be7100" ecmeta_series_index="1" ecmeta_data_index="3" ecmeta_ssr_type="chart" class="t-pareto-cls-1557"></path>
<path d="M1 0A1 1 0 1 1 1 -0.1A1 1 0 0 1 1 0" transform="matrix(4,0,0,4,403,41.76)" fill="#be7100" ecmeta_series_index="1" ecmeta_data_index="4" ecmeta_ssr_type="chart" class="t-pareto-cls-1557"></path>
<path d="M1 0A1 1 0 1 1 1 -0.1A1 1 0 0 1 1 0" transform="matrix(4,0,0,4,489,28.512)" fill="#be7100" ecmeta_series_index="1" ecmeta_data_index="5" ecmeta_ssr_type="chart" class="t-pareto-cls-1557"></path>
<path d="M1 0A1 1 0 1 1 1 -0.1A1 1 0 0 1 1 0" transform="matrix(4,0,0,4,575,20.784)" fill="#be7100" ecmeta_series_index="1" ecmeta_data_index="6" ecmeta_ssr_type="chart" class="t-pareto-cls-1557"></path>
<path d="M1 0A1 1 0 1 1 1 -0.1A1 1 0 0 1 1 0" transform="matrix(4,0,0,4,661,16)" fill="#be7100" ecmeta_series_index="1" ecmeta_data_index="7" ecmeta_ssr_type="chart" class="t-pareto-cls-1557"></path>
<path d="M16 89.5L704 89.5" fill="none" pointer-events="visible" stroke="#c9c6bb" stroke-dasharray="4,2" ecmeta_series_index="1" ecmeta_data_index="0" ecmeta_ssr_type="chart" ecmeta_silent="true" class="t-pareto-cls-1553"></path>
<defs >
<clipPath id="t-pareto-c0">
<path d="M14 14.8l692 0l0 370.5l-692 0Z" fill="#000" class="t-pareto-cls-1555"></path>
</clipPath>
</defs>
<style ><![CDATA[
.t-pareto-cls-1553:hover {
pointer-events:none;
}
.t-pareto-cls-1554:hover {
cursor:pointer;
fill:rgba(78,149,9,1);
}
.t-pareto-cls-1555:hover {
cursor:pointer;
fill:rgba(0,0,0,1);
}
.t-pareto-cls-1556:hover {
cursor:pointer;
}
.t-pareto-cls-1557:hover {
cursor:pointer;
fill:rgba(209,124,0,1);
}

]]>

</style>
</svg>