<svg xmlns="http://www.w3.org/2000/svg" xmlns:xlink="http://www.w3.org/1999/xlink" version="1.1" baseProfile="full" viewBox="0 0 720 400">
<rect width="720" height="400" x="0" y="0" fill="none"></rect>
<path d="M360 152A72 72 0 0 1 430.6 238.2L375.7 227.2A16 16 0 0 0 360 208Z" fill="#478809" stroke="#f7f5ee" stroke-width="2" stroke-linejoin="bevel" ecmeta_series_index="0" ecmeta_data_index="1" ecmeta_ssr_type="chart" class="t-sunburst-cls-1816"></path>
<path d="M360 76A148 148 0 0 1 468.6 123.5L415.8 172.4A76 76 0 0 0 360 148Z" fill="rgb(71,136,9)" fill-opacity="0.72" stroke="#f7f5ee" stroke-linejoin="bevel" ecmeta_series_index="0" ecmeta_data_index="2" ecmeta_ssr_type="chart" class="t-sunburst-cls-1817"></path>
<path d="M468.6 123.5A148 148 0 0 1 507.2 208.8L435.6 216.2A76 76 0 0 0 415.8 172.4Z" fill="rgb(71,136,9)" fill-opacity="0.72" stroke="#f7f5ee" stroke-linejoin="bevel" ecmeta_series_index="0" ecmeta_data_index="3" ecmeta_ssr_type="chart" class="t-sunburst-cls-1817"></path>
<path d="M507.2 208.8A148 148 0 0 1 508 226.6L436 225.3A76 76 0 0 0 435.6 216.2Z" fill="rgb(71,136,9)" fill-opacity="0.72" stroke="#f7f5ee" stroke-linejoin="bevel" ecmeta_series_index="0" ecmeta_data_index="4" ecmeta_ssr_type="chart" class="t-sunburst-cls-1817"></path>
<path d="M508 226.6A148 148 0 0 1 505.1 253.2L434.5 239A76 76 0 0 0 436 225.3Z" fill="rgb(71,136,9)" fill-opacity="0.72" stroke="#f7f5ee" stroke-linejoin="bevel" ecmeta_series_index="0" ecmeta_data_index="5" ecmeta_ssr_type="chart" class="t-sunburst-cls-1817"></path>
<path d="M430.6 238.2A72 72 0 0 1 294.2 253.3L345.4 230.5A16 16 0 0 0 375.7 227.2Z" fill="#6d47b8" stroke="#f7f5ee" stroke-width="2" stroke-linejoin="bevel" ecmeta_series_index="0" ecmeta_data_index="6" ecmeta_ssr_type="chart" class="t-sunburst-cls-1818"></path>
<path d="M505.1 253.2A148 148 0 0 1 384.4 370L372.5 299A76 76 0 0 0 434.5 239Z" fill="rgb(109,71,184)" fill-opacity="0.72" stroke="#f7f5ee" stroke-linejoin="bevel" ecmeta_series_index="0" ecmeta_data_index="7" ecmeta_ssr_type="chart" class="t-sunburst-cls-1819"></path>
<path d="M384.4 370A148 148 0 0 1 279.1 348L318.5 287.7A76 76 0 0 0 372.5 299Z" fill="rgb(109,71,184)" fill-opacity="0.72" stroke="#f7f5ee" stroke-linejoin="bevel" ecmeta_series_index="0" ecmeta_data_index="8" ecmeta_ssr_type="chart" class="t-sunburst-cls-1819"></path>
<path d="M279.1 348A148 148 0 0 1 249.8 322.8L303.4 274.8A76 76 0 0 0 318.5 287.7Z" fill="rgb(109,71,184)" fill-opacity="0.72" stroke="#f7f5ee" stroke-linejoin="bevel" ecmeta_series_index="0" ecmeta_data_index="9" ecmeta_ssr_type="chart" class="t-sunburst-cls-1819"></path>
<path d="M249.8 322.8A148 148 0 0 1 224.8 284.3L290.6 255A76 76 0 0 0 303.4 274.8Z" fill="rgb(109,71,184)" fill-opacity="0.72" stroke="#f7f5ee" stroke-linejoin="bevel" ecmeta_series_index="0" ecmeta_data_index="10" ecmeta_ssr_type="chart" class="t-sunburst-cls-1819"></path>
<path d="M294.2 253.3A72 72 0 0 1 313.4 169.1L349.6 211.8A16 16 0 0 0 345.4 230.5Z" fill="#be7100" stroke="#f7f5ee" stroke-width="2" stroke-linejoin="bevel" ecmeta_series_index="0" ecmeta_data_index="11" ecmeta_ssr_type="chart" class="t-sunburst-cls-1820"></path>
<path d="M224.8 284.3A148 148 0 0 1 214 199.9L285 211.6A76 76 0 0 0 290.6 255Z" fill="rgb(190,113,0)" fill-opacity="0.72" stroke="#f7f5ee" stroke-linejoin="bevel" ecmeta_series_index="0" ecmeta_data_index="12" ecmeta_ssr_type="chart" class="t-sunburst-cls-1821"></path>
<path d="M214 199.9A148 148 0 0 1 230.5 152.4L293.5 187.2A76 76 0 0 0 285 211.6Z" fill="rgb(190,113,0)" fill-opacity="0.72" stroke="#f7f5ee" stroke-linejoin="bevel" ecmeta_series_index="0" ecmeta_data_index="13" ecmeta_ssr_type="chart" class="t-sunburst-cls-1821"></path>
<path d="M230.5 152.4A148 148 0 0 1 249.4 125.7L303.2 173.5A76 76 0 0 0 293.5 187.2Z" fill="rgb(190,113,0)" fill-opacity="0.72" stroke="#f7f5ee" stroke-linejoin="bevel" ecmeta_series_index="0" ecmeta_data_index="14" ecmeta_ssr_type="chart" class="t-sunburst-cls-1821"></path>
<path d="M249.4 125.7A148 148 0 0 1 264.2 111.2L310.8 166.1A76 76 0 0 0 303.2 173.5Z" fill="rgb(190,113,0)" fill-opacity="0.72" stroke="#f7f5ee" stroke-linejoin="bevel" ecmeta_series_index="0" ecmeta_data_index="15" ecmeta_ssr_type="chart" class="t-sunburst-cls-1821"></path>
<path d="M313.4 169.1A72 72 0 0 1 343.5 153.9L356.3 208.4A16 16 0 0 0 349.6 211.8Z" fill="#008b9e" stroke="#f7f5ee" stroke-width="2" stroke-linejoin="bevel" ecmeta_series_index="0" ecmeta_data_index="16" ecmeta_ssr_type="chart" class="t-sunburst-cls-1822"></path>
<path d="M264.2 111.2A148 148 0 0 1 290 93.6L324.1 157A76 76 0 0 0 310.8 166.1Z" fill="rgb(0,139,158)" fill-opacity="0.72" stroke="#f7f5ee" stroke-linejoin="bevel" ecmeta_series_index="0" ecmeta_data_index="17" ecmeta_ssr_type="chart" class="t-sunburst-cls-1823"></path>
<path d="M290 93.6A148 148 0 0 1 310.4 84.6L334.5 152.4A76 76 0 0 0 324.1 157Z" fill="rgb(0,139,158)" fill-opacity="0.72" stroke="#f7f5ee" stroke-linejoin="bevel" ecmeta_series_index="0" ecmeta_data_index="18" ecmeta_ssr_type="chart" class="t-sunburst-cls-1823"></path>
<path d="M310.4 84.6A148 148 0 0 1 326.1 79.9L342.6 150A76 76 0 0 0 334.5 152.4Z" fill="rgb(0,139,158)" fill-opacity="0.72" stroke="#f7f5ee" stroke-linejoin="bevel" ecmeta_series_index="0" ecmeta_data_index="19" ecmeta_ssr_type="chart" class="t-sunburst-cls-1823"></path>
<path d="M343.5 153.9A72 72 0 0 1 360 152L360 208A16 16 0 0 0 356.3 208.4Z" fill="#c5372f" stroke="#f7f5ee" stroke-width="2" stroke-linejoin="bevel" ecmeta_series_index="0" ecmeta_data_index="20" ecmeta_ssr_type="chart" class="t-sunburst-cls-1824"></path>
<path d="M326.1 79.9A148 148 0 0 1 339.2 77.5L349.3 148.8A76 76 0 0 0 342.6 150Z" fill="rgb(197,55,47)" fill-opacity="0.72" stroke="#f7f5ee" stroke-linejoin="bevel" ecmeta_series_index="0" ecmeta_data_index="21" ecmeta_ssr_type="chart" class="t-sunburst-cls-1825"></path>
<path d="M339.2 77.5A148 148 0 0 1 348.1 76.5L353.9 148.2A76 76 0 0 0 349.3 148.8Z" fill="rgb(197,55,47)" fill-opacity="0.72" stroke="#f7f5ee" stroke-linejoin="bevel" ecmeta_series_index="0" ecmeta_data_index="22" ecmeta_ssr_type="chart" class="t-sunburst-cls-1825"></path>
<path d="M348.1 76.5A148 148 0 0 1 360 76L360 148A76 76 0 0 0 353.9 148.2Z" fill="rgb(197,55,47)" fill-opacity="0.72" stroke="#f7f5ee" stroke-linejoin="bevel" ecmeta_series_index="0" ecmeta_data_index="23" ecmeta_ssr_type="chart" class="t-sunburst-cls-1825"></path>
<style ><![CDATA[
.t-sunburst-cls-1816:hover {
cursor:pointer;
fill:rgba(78,149,9,1);
}
.t-sunburst-cls-1817:hover {
cursor:pointer;
fill:rgba(78,149,9,0.72);
}
.t-sunburst-cls-1818:hover {
cursor:pointer;
fill:rgba(119,78,202,1);
}
.t-sunburst-cls-1819:hover {
cursor:pointer;
fill:rgba(119,78,202,0.72);
}
.t-sunburst-cls-1820:hover {
cursor:pointer;
fill:rgba(209,124,0,1);
}
.t-sunburst-cls-1821:hover {
cursor:pointer;
fill:rgba(209,124,0,0.72);
}
.t-sunburst-cls-1822:hover {
cursor:pointer;
fill:rgba(0,152,173,1);
}
.t-sunburst-cls-1823:hover {
cursor:pointer;
fill:rgba(0,152,173,0.72);
}
.t-sunburst-cls-1824:hover {
cursor:pointer;
fill:rgba(216,60,51,1);
}
.t-sunburst-cls-1825:hover {
cursor:pointer;
fill:rgba(216,60,51,0.72);
}

]]>

</style>
</svg>