<svg xmlns="http://www.w3.org/2000/svg" xmlns:xlink="http://www.w3.org/1999/xlink" version="1.1" baseProfile="full" viewBox="0 0 720 400">
<rect width="720" height="400" x="0" y="0" fill="none"></rect>
<path d="M16 89.6l688 0l0 73.6l-688 0Z" fill="rgb(234,237,245)" fill-opacity="0.5" class="t-heatmap-cls-1129"></path>
<path d="M16 163.2l688 0l0 73.6l-688 0Z" fill="rgb(255,255,255)" fill-opacity="0" class="t-heatmap-cls-1129"></path>
<path d="M16 236.8l688 0l0 73.6l-688 0Z" fill="rgb(234,237,245)" fill-opacity="0.5" class="t-heatmap-cls-1129"></path>
<path d="M16 310.4l688 0l0 73.6l-688 0Z" fill="rgb(255,255,255)" fill-opacity="0" class="t-heatmap-cls-1129"></path>
<path d="M16 384l688 0l0 -73.6l-688 0Z" fill="rgb(234,237,245)" fill-opacity="0.5" class="t-heatmap-cls-1129"></path>
<path d="M16 16l62.5 0l0 368l-62.5 0Z" fill="rgb(234,237,245)" fill-opacity="0.5" class="t-heatmap-cls-1129"></path>
<path d="M78.5 16l62.5 0l0 368l-62.5 0Z" fill="rgb(255,255,255)" fill-opacity="0" class="t-heatmap-cls-1129"></path>
<path d="M141.1 16l62.5 0l0 368l-62.5 0Z" fill="rgb(234,237,245)" fill-opacity="0.5" class="t-heatmap-cls-1129"></path>
<path d="M203.6 16l62.5 0l0 368l-62.5 0Z" fill="rgb(255,255,255)" fill-opacity="0" class="t-heatmap-cls-1129"></path>
<path d="M266.2 16l62.5 0l0 368l-62.5 0Z" fill="rgb(234,237,245)" fill-opacity="0.5" class="t-heatmap-cls-1129"></path>
<path d="M328.7 16l62.5 0l0 368l-62.5 0Z" fill="rgb(255,255,255)" fill-opacity="0" class="t-heatmap-cls-1129"></path>
<path d="M391.3 16l62.5 0l0 368l-62.5 0Z" fill="rgb(234,237,245)" fill-opacity="0.5" class="t-heatmap-cls-1129"></path>
<path d="M453.8 16l62.5 0l0 368l-62.5 0Z" fill="rgb(255,255,255)" fill-opacity="0" class="t-heatmap-cls-1129"></path>
<path d="M516.4 16l62.5 0l0 368l-62.5 0Z" fill="rgb(234,237,245)" fill-opacity="0.5" class="t-heatmap-cls-1129"></path>
<path d="M578.9 16l62.5 0l0 368l-62.5 0Z" fill="rgb(255,255,255)" fill-opacity="0" class="t-heatmap-cls-1129"></path>
<path d="M641.5 16l62.5 0l0 368l-62.5 0Z" fill="rgb(234,237,245)" fill-opacity="0.5" class="t-heatmap-cls-1129"></path>
<path d="M16.5 16L16.5 384" fill="none" pointer-events="visible" stroke="#54555a" stroke-linecap="round" class="t-heatmap-cls-1129"></path>
<path d="M16 384.5L704 384.5" fill="none" pointer-events="visible" stroke="#54555a" stroke-linecap="round" class="t-heatmap-cls-1129"></path>
<path d="M15.8 15.8l63 0l0 74.1l-63 0Z" fill="rgb(187,215,142)" stroke="#f7f5ee" stroke-width="2" ecmeta_series_index="0" ecmeta_data_index="0" ecmeta_ssr_type="chart" class="t-heatmap-cls-1130"></path>
<path d="M78.3 15.8l63 0l0 74.1l-63 0Z" fill="rgb(98,150,39)" stroke="#f7f5ee" stroke-width="2" ecmeta_series_index="0" ecmeta_data_index="1" ecmeta_ssr_type="chart" class="t-heatmap-cls-1131"></path>
<path d="M140.8 15.8l63 0l0 74.1l-63 0Z" fill="rgb(47,95,12)" stroke="#f7f5ee" stroke-width="2" ecmeta_series_index="0" ecmeta_data_index="2" ecmeta_ssr_type="chart" class="t-heatmap-cls-1132"></path>
<path d="M203.4 15.8l63 0l0 74.1l-63 0Z" fill="rgb(74,124,26)" stroke="#f7f5ee" stroke-width="2" ecmeta_series_index="0" ecmeta_data_index="3" ecmeta_ssr_type="chart" class="t-heatmap-cls-1133"></path>
<path d="M265.9 15.8l63 0l0 74.1l-63 0Z" fill="rgb(147,188,93)" stroke="#f7f5ee" stroke-width="2" ecmeta_series_index="0" ecmeta_data_index="4" ecmeta_ssr_type="chart" class="t-heatmap-cls-1134"></path>
<path d="M328.5 15.8l63 0l0 74.1l-63 0Z" fill="rgb(165,200,116)" stroke="#f7f5ee" stroke-width="2" ecmeta_series_index="0" ecmeta_data_index="5" ecmeta_ssr_type="chart" class="t-heatmap-cls-1135"></path>
<path d="M391 15.8l63 0l0 74.1l-63 0Z" fill="rgb(87,138,33)" stroke="#f7f5ee" stroke-width="2" ecmeta_series_index="0" ecmeta_data_index="6" ecmeta_ssr_type="chart" class="t-heatmap-cls-1136"></path>
<path d="M453.6 15.8l63 0l0 74.1l-63 0Z" fill="rgb(65,114,21)" stroke="#f7f5ee" stroke-width="2" ecmeta_series_index="0" ecmeta_data_index="7" ecmeta_ssr_type="chart" class="t-heatmap-cls-1137"></path>
<path d="M516.1 15.8l63 0l0 74.1l-63 0Z" fill="rgb(107,160,44)" stroke="#f7f5ee" stroke-width="2" ecmeta_series_index="0" ecmeta_data_index="8" ecmeta_ssr_type="chart" class="t-heatmap-cls-1138"></path>
<path d="M578.7 15.8l63 0l0 74.1l-63 0Z" fill="rgb(162,198,112)" stroke="#f7f5ee" stroke-width="2" ecmeta_series_index="0" ecmeta_data_index="9" ecmeta_ssr_type="chart" class="t-heatmap-cls-1139"></path>
<path d="M641.2 15.8l63 0l0 74.1l-63 0Z" fill="rgb(193,219,151)" stroke="#f7f5ee" stroke-width="2" ecmeta_series_index="0" ecmeta_data_index="10" ecmeta_ssr_type="chart" class="t-heatmap-cls-1140"></path>
<path d="M15.8 89.3l63 0l0 74.1l-63 0Z" fill="rgb(195,219,154)" stroke="#f7f5ee" stroke-width="2" ecmeta_series_index="0" ecmeta_data_index="11" ecmeta_ssr_type="chart" class="t-heatmap-cls-1141"></path>
<path d="M78.3 89.3l63 0l0 74.1l-63 0Z" fill="rgb(102,155,41)" stroke="#f7f5ee" stroke-width="2" ecmeta_series_index="0" ecmeta_data_index="12" ecmeta_ssr_type="chart" class="t-heatmap-cls-1142"></path>
<path d="M140.8 89.3l63 0l0 74.1l-63 0Z" fill="rgb(98,150,39)" stroke="#f7f5ee" stroke-width="2" ecmeta_series_index="0" ecmeta_data_index="13" ecmeta_ssr_type="chart" class="t-heatmap-cls-1131"></path>
<path d="M203.4 89.3l63 0l0 74.1l-63 0Z" fill="rgb(87,138,33)" stroke="#f7f5ee" stroke-width="2" ecmeta_series_index="0" ecmeta_data_index="14" ecmeta_ssr_type="chart" class="t-heatmap-cls-1136"></path>
<path d="M265.9 89.3l63 0l0 74.1l-63 0Z" fill="rgb(162,198,112)" stroke="#f7f5ee" stroke-width="2" ecmeta_series_index="0" ecmeta_data_index="15" ecmeta_ssr_type="chart" class="t-heatmap-cls-1139"></path>
<path d="M328.5 89.3l63 0l0 74.1l-63 0Z" fill="rgb(178,209,131)" stroke="#f7f5ee" stroke-width="2" ecmeta_series_index="0" ecmeta_data_index="16" ecmeta_ssr_type="chart" class="t-heatmap-cls-1143"></path>
<path d="M391 89.3l63 0l0 74.1l-63 0Z" fill="rgb(105,157,42)" stroke="#f7f5ee" stroke-width="2" ecmeta_series_index="0" ecmeta_data_index="17" ecmeta_ssr_type="chart" class="t-heatmap-cls-1144"></path>
<path d="M453.6 89.3l63 0l0 74.1l-63 0Z" fill="rgb(87,138,33)" stroke="#f7f5ee" stroke-width="2" ecmeta_series_index="0" ecmeta_data_index="18" ecmeta_ssr_type="chart" class="t-heatmap-cls-1136"></path>
<path d="M516.1 89.3l63 0l0 74.1l-63 0Z" fill="rgb(119,168,59)" stroke="#f7f5ee" stroke-width="2" ecmeta_series_index="0" ecmeta_data_index="19" ecmeta_ssr_type="chart" class="t-heatmap-cls-1145"></path>
<path d="M578.7 89.3l63 0l0 74.1l-63 0Z" fill="rgb(175,207,127)" stroke="#f7f5ee" stroke-width="2" ecmeta_series_index="0" ecmeta_data_index="20" ecmeta_ssr_type="chart" class="t-heatmap-cls-1146"></path>
<path d="M641.2 89.3l63 0l0 74.1l-63 0Z" fill="rgb(204,224,170)" stroke="#f7f5ee" stroke-width="2" ecmeta_series_index="0" ecmeta_data_index="21" ecmeta_ssr_type="chart" class="t-heatmap-cls-1147"></path>
<path d="M15.8 163l63 0l0 74.1l-63 0Z" fill="rgb(197,220,158)" stroke="#f7f5ee" stroke-width="2" ecmeta_series_index="0" ecmeta_data_index="22" ecmeta_ssr_type="chart" class="t-heatmap-cls-1148"></path>
<path d="M78.3 163l63 0l0 74.1l-63 0Z" fill="rgb(129,175,71)" stroke="#f7f5ee" stroke-width="2" ecmeta_series_index="0" ecmeta_data_index="23" ecmeta_ssr_type="chart" class="t-heatmap-cls-1149"></path>
<path d="M140.8 163l63 0l0 74.1l-63 0Z" fill="rgb(93,145,36)" stroke="#f7f5ee" stroke-width="2" ecmeta_series_index="0" ecmeta_data_index="24" ecmeta_ssr_type="chart" class="t-heatmap-cls-1150"></path>
<path d="M203.4 163l63 0l0 74.1l-63 0Z" fill="rgb(93,145,36)" stroke="#f7f5ee" stroke-width="2" ecmeta_series_index="0" ecmeta_data_index="25" ecmeta_ssr_type="chart" class="t-heatmap-cls-1150"></path>
<path d="M265.9 163l63 0l0 74.1l-63 0Z" fill="rgb(162,198,112)" stroke="#f7f5ee" stroke-width="2" ecmeta_series_index="0" ecmeta_data_index="26" ecmeta_ssr_type="chart" class="t-heatmap-cls-1139"></path>
<path d="M328.5 163l63 0l0 74.1l-63 0Z" fill="rgb(193,219,151)" stroke="#f7f5ee" stroke-width="2" ecmeta_series_index="0" ecmeta_data_index="27" ecmeta_ssr_type="chart" class="t-heatmap-cls-1140"></path>
<path d="M391 163l63 0l0 74.1l-63 0Z" fill="rgb(116,166,56)" stroke="#f7f5ee" stroke-width="2" ecmeta_series_index="0" ecmeta_data_index="28" ecmeta_ssr_type="chart" class="t-heatmap-cls-1151"></path>
<path d="M453.6 163l63 0l0 74.1l-63 0Z" fill="rgb(110,162,48)" stroke="#f7f5ee" stroke-width="2" ecmeta_series_index="0" ecmeta_data_index="29" ecmeta_ssr_type="chart" class="t-heatmap-cls-1152"></path>
<path d="M516.1 163l63 0l0 74.1l-63 0Z" fill="rgb(135,179,78)" stroke="#f7f5ee" stroke-width="2" ecmeta_series_index="0" ecmeta_data_index="30" ecmeta_ssr_type="chart" class="t-heatmap-cls-1153"></path>
<path d="M578.7 163l63 0l0 74.1l-63 0Z" fill="rgb(172,205,123)" stroke="#f7f5ee" stroke-width="2" ecmeta_series_index="0" ecmeta_data_index="31" ecmeta_ssr_type="chart" class="t-heatmap-cls-1154"></path>
<path d="M641.2 163l63 0l0 74.1l-63 0Z" fill="rgb(202,223,167)" stroke="#f7f5ee" stroke-width="2" ecmeta_series_index="0" ecmeta_data_index="32" ecmeta_ssr_type="chart" class="t-heatmap-cls-1155"></path>
<path d="M15.8 236.6l63 0l0 74.1l-63 0Z" fill="rgb(197,220,158)" stroke="#f7f5ee" stroke-width="2" ecmeta_series_index="0" ecmeta_data_index="33" ecmeta_ssr_type="chart" class="t-heatmap-cls-1148"></path>
<path d="M78.3 236.6l63 0l0 74.1l-63 0Z" fill="rgb(141,183,85)" stroke="#f7f5ee" stroke-width="2" ecmeta_series_index="0" ecmeta_data_index="34" ecmeta_ssr_type="chart" class="t-heatmap-cls-1156"></path>
<path d="M140.8 236.6l63 0l0 74.1l-63 0Z" fill="rgb(98,150,39)" stroke="#f7f5ee" stroke-width="2" ecmeta_series_index="0" ecmeta_data_index="35" ecmeta_ssr_type="chart" class="t-heatmap-cls-1131"></path>
<path d="M203.4 236.6l63 0l0 74.1l-63 0Z" fill="rgb(122,170,63)" stroke="#f7f5ee" stroke-width="2" ecmeta_series_index="0" ecmeta_data_index="36" ecmeta_ssr_type="chart" class="t-heatmap-cls-1157"></path>
<path d="M265.9 236.6l63 0l0 74.1l-63 0Z" fill="rgb(178,209,131)" stroke="#f7f5ee" stroke-width="2" ecmeta_series_index="0" ecmeta_data_index="37" ecmeta_ssr_type="chart" class="t-heatmap-cls-1143"></path>
<path d="M328.5 236.6l63 0l0 74.1l-63 0Z" fill="rgb(191,218,148)" stroke="#f7f5ee" stroke-width="2" ecmeta_series_index="0" ecmeta_data_index="38" ecmeta_ssr_type="chart" class="t-heatmap-cls-1158"></path>
<path d="M391 236.6l63 0l0 74.1l-63 0Z" fill="rgb(125,173,67)" stroke="#f7f5ee" stroke-width="2" ecmeta_series_index="0" ecmeta_data_index="39" ecmeta_ssr_type="chart" class="t-heatmap-cls-1159"></path>
<path d="M453.6 236.6l63 0l0 74.1l-63 0Z" fill="rgb(100,153,40)" stroke="#f7f5ee" stroke-width="2" ecmeta_series_index="0" ecmeta_data_index="40" ecmeta_ssr_type="chart" class="t-heatmap-cls-1160"></path>
<path d="M516.1 236.6l63 0l0 74.1l-63 0Z" fill="rgb(125,173,67)" stroke="#f7f5ee" stroke-width="2" ecmeta_series_index="0" ecmeta_data_index="41" ecmeta_ssr_type="chart" class="t-heatmap-cls-1159"></path>
<path d="M578.7 236.6l63 0l0 74.1l-63 0Z" fill="rgb(189,217,145)" stroke="#f7f5ee" stroke-width="2" ecmeta_series_index="0" ecmeta_data_index="42" ecmeta_ssr_type="chart" class="t-heatmap-cls-1161"></path>
<path d="M641.2 236.6l63 0l0 74.1l-63 0Z" fill="rgb(204,224,170)" stroke="#f7f5ee" stroke-width="2" ecmeta_series_index="0" ecmeta_data_index="43" ecmeta_ssr_type="chart" class="t-heatmap-cls-1147"></path>
<path d="M15.8 310.2l63 0l0 74.1l-63 0Z" fill="rgb(208,226,176)" stroke="#f7f5ee" stroke-width="2" ecmeta_series_index="0" ecmeta_data_index="44" ecmeta_ssr_type="chart" class="t-heatmap-cls-1162"></path>
<path d="M78.3 310.2l63 0l0 74.1l-63 0Z" fill="rgb(153,192,101)" stroke="#f7f5ee" stroke-width="2" ecmeta_series_index="0" ecmeta_data_index="45" ecmeta_ssr_type="chart" class="t-heatmap-cls-1163"></path>
<path d="M140.8 310.2l63 0l0 74.1l-63 0Z" fill="rgb(132,177,74)" stroke="#f7f5ee" stroke-width="2" ecmeta_series_index="0" ecmeta_data_index="46" ecmeta_ssr_type="chart" class="t-heatmap-cls-1164"></path>
<path d="M203.4 310.2l63 0l0 74.1l-63 0Z" fill="rgb(129,175,71)" stroke="#f7f5ee" stroke-width="2" ecmeta_series_index="0" ecmeta_data_index="47" ecmeta_ssr_type="chart" class="t-heatmap-cls-1149"></path>
<path d="M265.9 310.2l63 0l0 74.1l-63 0Z" fill="rgb(191,218,148)" stroke="#f7f5ee" stroke-width="2" ecmeta_series_index="0" ecmeta_data_index="48" ecmeta_ssr_type="chart" class="t-heatmap-cls-1158"></path>
<path d="M328.5 310.2l63 0l0 74.1l-63 0Z" fill="rgb(197,220,158)" stroke="#f7f5ee" stroke-width="2" ecmeta_series_index="0" ecmeta_data_index="49" ecmeta_ssr_type="chart" class="t-heatmap-cls-1148"></path>
<path d="M391 310.2l63 0l0 74.1l-63 0Z" fill="rgb(150,190,97)" stroke="#f7f5ee" stroke-width="2" ecmeta_series_index="0" ecmeta_data_index="50" ecmeta_ssr_type="chart" class="t-heatmap-cls-1165"></path>
<path d="M453.6 310.2l63 0l0 74.1l-63 0Z" fill="rgb(125,173,67)" stroke="#f7f5ee" stroke-width="2" ecmeta_series_index="0" ecmeta_data_index="51" ecmeta_ssr_type="chart" class="t-heatmap-cls-1159"></path>
<path d="M516.1 310.2l63 0l0 74.1l-63 0Z" fill="rgb(169,202,119)" stroke="#f7f5ee" stroke-width="2" ecmeta_series_index="0" ecmeta_data_index="52" ecmeta_ssr_type="chart" class="t-heatmap-cls-1166"></path>
<path d="M578.7 310.2l63 0l0 74.1l-63 0Z" fill="rgb(189,217,145)" stroke="#f7f5ee" stroke-width="2" ecmeta_series_index="0" ecmeta_data_index="53" ecmeta_ssr_type="chart" class="t-heatmap-cls-1161"></path>
<path d="M641.2 310.2l63 0l0 74.1l-63 0Z" fill="rgb(212,228,182)" stroke="#f7f5ee" stroke-width="2" ecmeta_series_index="0" ecmeta_data_index="54" ecmeta_ssr_type="chart" class="t-heatmap-cls-1167"></path>
<style ><![CDATA[
.t-heatmap-cls-1129:hover {
pointer-events:none;
}
.t-heatmap-cls-1130:hover {
cursor:pointer;
fill:rgba(205,236,156,1);
}
.t-heatmap-cls-1131:hover {
cursor:pointer;
fill:rgba(107,165,42,1);
}
.t-heatmap-cls-1132:hover {
cursor:pointer;
fill:rgba(51,104,13,1);
}
.t-heatmap-cls-1133:hover {
cursor:pointer;
fill:rgba(81,136,28,1);
}
.t-heatmap-cls-1134:hover {
cursor:pointer;
fill:rgba(161,206,102,1);
}
.t-heatmap-cls-1135:hover {
cursor:pointer;
fill:rgba(181,220,127,1);
}
.t-heatmap-cls-1136:hover {
cursor:pointer;
fill:rgba(95,151,36,1);
}
.t-heatmap-cls-1137:hover {
cursor:pointer;
fill:rgba(71,125,23,1);
}
.t-heatmap-cls-1138:hover {
cursor:pointer;
fill:rgba(117,176,48,1);
}
.t-heatmap-cls-1139:hover {
cursor:pointer;
fill:rgba(178,217,123,1);
}
.t-heatmap-cls-1140:hover {
cursor:pointer;
fill:rgba(212,240,166,1);
}
.t-heatmap-cls-1141:hover {
cursor:pointer;
fill:rgba(214,240,169,1);
}
.t-heatmap-cls-1142:hover {
cursor:pointer;
fill:rgba(112,170,45,1);
}
.t-heatmap-cls-1143:hover {
cursor:pointer;
fill:rgba(195,229,144,1);
}
.t-heatmap-cls-1144:hover {
cursor:pointer;
fill:rgba(115,172,46,1);
}
.t-heatmap-cls-1145:hover {
cursor:pointer;
fill:rgba(130,184,64,1);
}
.t-heatmap-cls-1146:hover {
cursor:pointer;
fill:rgba(192,227,139,1);
}
.t-heatmap-cls-1147:hover {
cursor:pointer;
fill:rgba(224,246,187,1);
}
.t-heatmap-cls-1148:hover {
cursor:pointer;
fill:rgba(216,242,173,1);
}
.t-heatmap-cls-1149:hover {
cursor:pointer;
fill:rgba(141,192,78,1);
}
.t-heatmap-cls-1150:hover {
cursor:pointer;
fill:rgba(102,159,39,1);
}
.t-heatmap-cls-1151:hover {
cursor:pointer;
fill:rgba(127,182,61,1);
}
.t-heatmap-cls-1152:hover {
cursor:pointer;
fill:rgba(121,178,52,1);
}
.t-heatmap-cls-1153:hover {
cursor:pointer;
fill:rgba(148,196,85,1);
}
.t-heatmap-cls-1154:hover {
cursor:pointer;
fill:rgba(189,225,135,1);
}
.t-heatmap-cls-1155:hover {
cursor:pointer;
fill:rgba(222,245,183,1);
}
.t-heatmap-cls-1156:hover {
cursor:pointer;
fill:rgba(155,201,93,1);
}
.t-heatmap-cls-1157:hover {
cursor:pointer;
fill:rgba(134,187,69,1);
}
.t-heatmap-cls-1158:hover {
cursor:pointer;
fill:rgba(210,239,162,1);
}
.t-heatmap-cls-1159:hover {
cursor:pointer;
fill:rgba(137,190,73,1);
}
.t-heatmap-cls-1160:hover {
cursor:pointer;
fill:rgba(110,168,44,1);
}
.t-heatmap-cls-1161:hover {
cursor:pointer;
fill:rgba(207,238,159,1);
}
.t-heatmap-cls-1162:hover {
cursor:pointer;
fill:rgba(228,248,193,1);
}
.t-heatmap-cls-1163:hover {
cursor:pointer;
fill:rgba(168,211,111,1);
}
.t-heatmap-cls-1164:hover {
cursor:pointer;
fill:rgba(145,194,81,1);
}
.t-heatmap-cls-1165:hover {
cursor:pointer;
fill:rgba(165,209,106,1);
}
.t-heatmap-cls-1166:hover {
cursor:pointer;
fill:rgba(185,222,130,1);
}
.t-heatmap-cls-1167:hover {
cursor:pointer;
fill:rgba(233,250,200,1);
}

]]>

</style>
</svg>