<svg xmlns="http://www.w3.org/2000/svg" xmlns:xlink="http://www.w3.org/1999/xlink" version="1.1" baseProfile="full" viewBox="0 0 720 400">
<rect width="720" height="400" x="0" y="0" fill="none"></rect>
<path d="M16 384.5L704 384.5" fill="none" pointer-events="visible" stroke="#e4e1d7" class="t-scatter-cls-1115"></path>
<path d="M16 310.5L704 310.5" fill="none" pointer-events="visible" stroke="#e4e1d7" class="t-scatter-cls-1115"></path>
<path d="M16 237.5L704 237.5" fill="none" pointer-events="visible" stroke="#e4e1d7" class="t-scatter-cls-1115"></path>
<path d="M16 163.5L704 163.5" fill="none" pointer-events="visible" stroke="#e4e1d7" class="t-scatter-cls-1115"></path>
<path d="M16 89.5L704 89.5" fill="none" pointer-events="visible" stroke="#e4e1d7" class="t-scatter-cls-1115"></path>
<path d="M16 16.5L704 16.5" fill="none" pointer-events="visible" stroke="#e4e1d7" class="t-scatter-cls-1115"></path>
<path d="M16.5 16L16.5 384" fill="none" pointer-events="visible" stroke="#e4e1d7" class="t-scatter-cls-1115"></path>
<path d="M130.5 16L130.5 384" fill="none" pointer-events="visible" stroke="#e4e1d7" class="t-scatter-cls-1115"></path>
<path d="M245.5 16L245.5 384" fill="none" pointer-events="visible" stroke="#e4e1d7" class="t-scatter-cls-1115"></path>
<path d="M360.5 16L360.5 384" fill="none" pointer-events="visible" stroke="#e4e1d7" class="t-scatter-cls-1115"></path>
<path d="M474.5 16L474.5 384" fill="none" pointer-events="visible" stroke="#e4e1d7" class="t-scatter-cls-1115"></path>
<path d="M589.5 16L589.5 384" fill="none" pointer-events="visible" stroke="#e4e1d7" class="t-scatter-cls-1115"></path>
<path d="M704.5 16L704.5 384" fill="none" pointer-events="visible" stroke="#e4e1d7" class="t-scatter-cls-1115"></path>
<path d="M16.5 384L16.5 16" fill="none" pointer-events="visible" stroke="#54555a" stroke-linecap="round" class="t-scatter-cls-1115"></path>
<path d="M16 384.5L704 384.5" fill="none" pointer-events="visible" stroke="#54555a" stroke-linecap="round" class="t-scatter-cls-1115"></path>
<path d="M1 0A1 1 0 1 1 1 -0.1A1 1 0 0 1 1 0" transform="matrix(5,0,0,5,549.2,136.704)" fill="#478809" fill-opacity="0.78" ecmeta_series_index="0" ecmeta_data_index="0" ecmeta_ssr_type="chart" class="t-scatter-cls-1116"></path>
<path d="M1 0A1 1 0 1 1 1 -0.1A1 1 0 0 1 1 0" transform="matrix(5,0,0,5,170.8,300.832)" fill="#478809" fill-opacity="0.78" ecmeta_series_index="0" ecmeta_data_index="1" ecmeta_ssr_type="chart" class="t-scatter-cls-1116"></path>
<path d="M1 0A1 1 0 1 1 1 -0.1A1 1 0 0 1 1 0" transform="matrix(5,0,0,5,400.1333,138.176)" fill="#478809" fill-opacity="0.78" ecmeta_series_index="0" ecmeta_data_index="2" ecmeta_ssr_type="chart" class="t-scatter-cls-1116"></path>
<path d="M1 0A1 1 0 1 1 1 -0.1A1 1 0 0 1 1 0" transform="matrix(5,0,0,5,486.1333,117.568)" fill="#478809" fill-opacity="0.78" ecmeta_series_index="0" ecmeta_data_index="3" ecmeta_ssr_type="chart" class="t-scatter-cls-1116"></path>
<path d="M1 0A1 1 0 1 1 1 -0.1A1 1 0 0 1 1 0" transform="matrix(5,0,0,5,90.5333,367.072)" fill="#478809" fill-opacity="0.78" ecmeta_series_index="0" ecmeta_data_index="4" ecmeta_ssr_type="chart" class="t-scatter-cls-1116"></path>
<path d="M1 0A1 1 0 1 1 1 -0.1A1 1 0 0 1 1 0" transform="matrix(5,0,0,5,73.3333,315.552)" fill="#478809" fill-opacity="0.78" ecmeta_series_index="0" ecmeta_data_index="5" ecmeta_ssr_type="chart" class="t-scatter-cls-1116"></path>
<path d="M1 0A1 1 0 1 1 1 -0.1A1 1 0 0 1 1 0" transform="matrix(5,0,0,5,405.8667,222.816)" fill="#478809" fill-opacity="0.78" ecmeta_series_index="0" ecmeta_data_index="6" ecmeta_ssr_type="chart" class="t-scatter-cls-1116"></path>
<path d="M1 0A1 1 0 1 1 1 -0.1A1 1 0 0 1 1 0" transform="matrix(5,0,0,5,589.3333,46.176)" fill="#478809" fill-opacity="0.78" ecmeta_series_index="0" ecmeta_data_index="7" ecmeta_ssr_type="chart" class="t-scatter-cls-1116"></path>
<path d="M1 0A1 1 0 1 1 1 -0.1A1 1 0 0 1 1 0" transform="matrix(5,0,0,5,434.5333,205.152)" fill="#478809" fill-opacity="0.78" ecmeta_series_index="0" ecmeta_data_index="8" ecmeta_ssr_type="chart" class="t-scatter-cls-1116"></path>
<path d="M1 0A1 1 0 1 1 1 -0.1A1 1 0 0 1 1 0" transform="matrix(5,0,0,5,612.2667,24.096)" fill="#478809" fill-opacity="0.78" ecmeta_series_index="0" ecmeta_data_index="9" ecmeta_ssr_type="chart" class="t-scatter-cls-1116"></path>
<path d="M1 0A1 1 0 1 1 1 -0.1A1 1 0 0 1 1 0" transform="matrix(5,0,0,5,182.2667,259.616)" fill="#478809" fill-opacity="0.78" ecmeta_series_index="0" ecmeta_data_index="10" ecmeta_ssr_type="chart" class="t-scatter-cls-1116"></path>
<path d="M1 0A1 1 0 1 1 1 -0.1A1 1 0 0 1 1 0" transform="matrix(5,0,0,5,434.5333,205.152)" fill="#478809" fill-opacity="0.78" ecmeta_series_index="0" ecmeta_data_index="11" ecmeta_ssr_type="chart" class="t-scatter-cls-1116"></path>
<path d="M1 0A1 1 0 1 1 1 -0.1A1 1 0 0 1 1 0" transform="matrix(5,0,0,5,245.3333,242.688)" fill="#478809" fill-opacity="0.78" ecmeta_series_index="0" ecmeta_data_index="12" ecmeta_ssr_type="chart" class="t-scatter-cls-1116"></path>
<path d="M1 0A1 1 0 1 1 1 -0.1A1 1 0 0 1 1 0" transform="matrix(5,0,0,5,554.9333,105.792)" fill="#478809" fill-opacity="0.78" ecmeta_series_index="0" ecmeta_data_index="13" ecmeta_ssr_type="chart" class="t-scatter-cls-1116"></path>
<path d="M1 0A1 1 0 1 1 1 -0.1A1 1 0 0 1 1 0" transform="matrix(5,0,0,5,302.6667,219.136)" fill="#478809" fill-opacity="0.78" ecmeta_series_index="0" ecmeta_data_index="14" ecmeta_ssr_type="chart" class="t-scatter-cls-1116"></path>
<path d="M1 0A1 1 0 1 1 1 -0.1A1 1 0 0 1 1 0" transform="matrix(5,0,0,5,296.9333,314.816)" fill="#478809" fill-opacity="0.78" ecmeta_series_index="0" ecmeta_data_index="15" ecmeta_ssr_type="chart" class="t-scatter-cls-1116"></path>
<path d="M1 0A1 1 0 1 1 1 -0.1A1 1 0 0 1 1 0" transform="matrix(5,0,0,5,560.6667,71.936)" fill="#478809" fill-opacity="0.78" ecmeta_series_index="0" ecmeta_data_index="16" ecmeta_ssr_type="chart" class="t-scatter-cls-1116"></path>
<path d="M1 0A1 1 0 1 1 1 -0.1A1 1 0 0 1 1 0" transform="matrix(5,0,0,5,640.9333,88.128)" fill="#478809" fill-opacity="0.78" ecmeta_series_index="0" ecmeta_data_index="17" ecmeta_ssr_type="chart" class="t-scatter-cls-1116"></path>
<path d="M1 0A1 1 0 1 1 1 -0.1A1 1 0 0 1 1 0" transform="matrix(5,0,0,5,612.2667,43.232)" fill="#478809" fill-opacity="0.78" ecmeta_series_index="0" ecmeta_data_index="18" ecmeta_ssr_type="chart" class="t-scatter-cls-1116"></path>
<path d="M1 0A1 1 0 1 1 1 -0.1A1 1 0 0 1 1 0" transform="matrix(5,0,0,5,440.2667,126.4)" fill="#478809" fill-opacity="0.78" ecmeta_series_index="0" ecmeta_data_index="19" ecmeta_ssr_type="chart" class="t-scatter-cls-1116"></path>
<path d="M1 0A1 1 0 1 1 1 -0.1A1 1 0 0 1 1 0" transform="matrix(5,0,0,5,222.4,280.224)" fill="#478809" fill-opacity="0.78" ecmeta_series_index="0" ecmeta_data_index="20" ecmeta_ssr_type="chart" class="t-scatter-cls-1116"></path>
<path d="M1 0A1 1 0 1 1 1 -0.1A1 1 0 0 1 1 0" transform="matrix(5,0,0,5,228.1333,281.696)" fill="#478809" fill-opacity="0.78" ecmeta_series_index="0" ecmeta_data_index="21" ecmeta_ssr_type="chart" class="t-scatter-cls-1116"></path>
<path d="M1 0A1 1 0 1 1 1 -0.1A1 1 0 0 1 1 0" transform="matrix(5,0,0,5,446,105.056)" fill="#478809" fill-opacity="0.78" ecmeta_series_index="0" ecmeta_data_index="22" ecmeta_ssr_type="chart" class="t-scatter-cls-1116"></path>
<path d="M1 0A1 1 0 1 1 1 -0.1A1 1 0 0 1 1 0" transform="matrix(5,0,0,5,102,30.72)" fill="#478809" fill-opacity="0.78" ecmeta_series_index="0" ecmeta_data_index="23" ecmeta_ssr_type="chart" class="t-scatter-cls-1116"></path>
<path d="M1 0A1 1 0 1 1 1 -0.1A1 1 0 0 1 1 0" transform="matrix(5,0,0,5,491.8667,118.304)" fill="#6d47b8" fill-opacity="0.78" ecmeta_series_index="1" ecmeta_data_index="0" ecmeta_ssr_type="chart" class="t-scatter-cls-1117"></path>
<path d="M1 0A1 1 0 1 1 1 -0.1A1 1 0 0 1 1 0" transform="matrix(5,0,0,5,331.3333,239.744)" fill="#6d47b8" fill-opacity="0.78" ecmeta_series_index="1" ecmeta_data_index="1" ecmeta_ssr_type="chart" class="t-scatter-cls-1117"></path>
<path d="M1 0A1 1 0 1 1 1 -0.1A1 1 0 0 1 1 0" transform="matrix(5,0,0,5,394.4,211.776)" fill="#6d47b8" fill-opacity="0.78" ecmeta_series_index="1" ecmeta_data_index="2" ecmeta_ssr_type="chart" class="t-scatter-cls-1117"></path>
<path d="M1 0A1 1 0 1 1 1 -0.1A1 1 0 0 1 1 0" transform="matrix(5,0,0,5,113.4667,381.792)" fill="#6d47b8" fill-opacity="0.78" ecmeta_series_index="1" ecmeta_data_index="3" ecmeta_ssr_type="chart" class="t-scatter-cls-1117"></path>
<path d="M1 0A1 1 0 1 1 1 -0.1A1 1 0 0 1 1 0" transform="matrix(5,0,0,5,491.8667,82.24)" fill="#6d47b8" fill-opacity="0.78" ecmeta_series_index="1" ecmeta_data_index="4" ecmeta_ssr_type="chart" class="t-scatter-cls-1117"></path>
<path d="M1 0A1 1 0 1 1 1 -0.1A1 1 0 0 1 1 0" transform="matrix(5,0,0,5,210.9333,293.472)" fill="#6d47b8" fill-opacity="0.78" ecmeta_series_index="1" ecmeta_data_index="5" ecmeta_ssr_type="chart" class="t-scatter-cls-1117"></path>
<path d="M1 0A1 1 0 1 1 1 -0.1A1 1 0 0 1 1 0" transform="matrix(5,0,0,5,434.5333,124.928)" fill="#6d47b8" fill-opacity="0.78" ecmeta_series_index="1" ecmeta_data_index="6" ecmeta_ssr_type="chart" class="t-scatter-cls-1117"></path>
<path d="M1 0A1 1 0 1 1 1 -0.1A1 1 0 0 1 1 0" transform="matrix(5,0,0,5,360,158.784)" fill="#6d47b8" fill-opacity="0.78" ecmeta_series_index="1" ecmeta_data_index="7" ecmeta_ssr_type="chart" class="t-scatter-cls-1117"></path>
<path d="M1 0A1 1 0 1 1 1 -0.1A1 1 0 0 1 1 0" transform="matrix(5,0,0,5,182.2667,328.8)" fill="#6d47b8" fill-opacity="0.78" ecmeta_series_index="1" ecmeta_data_index="8" ecmeta_ssr_type="chart" class="t-scatter-cls-1117"></path>
<path d="M1 0A1 1 0 1 1 1 -0.1A1 1 0 0 1 1 0" transform="matrix(5,0,0,5,193.7333,323.648)" fill="#6d47b8" fill-opacity="0.78" ecmeta_series_index="1" ecmeta_data_index="9" ecmeta_ssr_type="chart" class="t-scatter-cls-1117"></path>
<path d="M1 0A1 1 0 1 1 1 -0.1A1 1 0 0 1 1 0" transform="matrix(5,0,0,5,560.6667,74.88)" fill="#6d47b8" fill-opacity="0.78" ecmeta_series_index="1" ecmeta_data_index="10" ecmeta_ssr_type="chart" class="t-scatter-cls-1117"></path>
<path d="M1 0A1 1 0 1 1 1 -0.1A1 1 0 0 1 1 0" transform="matrix(5,0,0,5,308.4,221.344)" fill="#6d47b8" fill-opacity="0.78" ecmeta_series_index="1" ecmeta_data_index="11" ecmeta_ssr_type="chart" class="t-scatter-cls-1117"></path>
<path d="M1 0A1 1 0 1 1 1 -0.1A1 1 0 0 1 1 0" transform="matrix(5,0,0,5,411.6,194.848)" fill="#6d47b8" fill-opacity="0.78" ecmeta_series_index="1" ecmeta_data_index="12" ecmeta_ssr_type="chart" class="t-scatter-cls-1117"></path>
<path d="M1 0A1 1 0 1 1 1 -0.1A1 1 0 0 1 1 0" transform="matrix(5,0,0,5,560.6667,124.192)" fill="#6d47b8" fill-opacity="0.78" ecmeta_series_index="1" ecmeta_data_index="13" ecmeta_ssr_type="chart" class="t-scatter-cls-1117"></path>
<path d="M1 0A1 1 0 1 1 1 -0.1A1 1 0 0 1 1 0" transform="matrix(5,0,0,5,119.2,326.592)" fill="#6d47b8" fill-opacity="0.78" ecmeta_series_index="1" ecmeta_data_index="14" ecmeta_ssr_type="chart" class="t-scatter-cls-1117"></path>
<path d="M1 0A1 1 0 1 1 1 -0.1A1 1 0 0 1 1 0" transform="matrix(5,0,0,5,119.2,325.12)" fill="#6d47b8" fill-opacity="0.78" ecmeta_series_index="1" ecmeta_data_index="15" ecmeta_ssr_type="chart" class="t-scatter-cls-1117"></path>
<path d="M1 0A1 1 0 1 1 1 -0.1A1 1 0 0 1 1 0" transform="matrix(5,0,0,5,314.1333,294.208)" fill="#6d47b8" fill-opacity="0.78" ecmeta_series_index="1" ecmeta_data_index="16" ecmeta_ssr_type="chart" class="t-scatter-cls-1117"></path>
<path d="M1 0A1 1 0 1 1 1 -0.1A1 1 0 0 1 1 0" transform="matrix(5,0,0,5,595.0667,74.144)" fill="#6d47b8" fill-opacity="0.78" ecmeta_series_index="1" ecmeta_data_index="17" ecmeta_ssr_type="chart" class="t-scatter-cls-1117"></path>
<path d="M1 0A1 1 0 1 1 1 -0.1A1 1 0 0 1 1 0" transform="matrix(5,0,0,5,279.7333,240.48)" fill="#6d47b8" fill-opacity="0.78" ecmeta_series_index="1" ecmeta_data_index="18" ecmeta_ssr_type="chart" class="t-scatter-cls-1117"></path>
<path d="M1 0A1 1 0 1 1 1 -0.1A1 1 0 0 1 1 0" transform="matrix(5,0,0,5,130.6667,346.464)" fill="#6d47b8" fill-opacity="0.78" ecmeta_series_index="1" ecmeta_data_index="19" ecmeta_ssr_type="chart" class="t-scatter-cls-1117"></path>
<path d="M1 0A1 1 0 1 1 1 -0.1A1 1 0 0 1 1 0" transform="matrix(5,0,0,5,216.6667,294.208)" fill="#6d47b8" fill-opacity="0.78" ecmeta_series_index="1" ecmeta_data_index="20" ecmeta_ssr_type="chart" class="t-scatter-cls-1117"></path>
<path d="M1 0A1 1 0 1 1 1 -0.1A1 1 0 0 1 1 0" transform="matrix(5,0,0,5,107.7333,331.744)" fill="#6d47b8" fill-opacity="0.78" ecmeta_series_index="1" ecmeta_data_index="21" ecmeta_ssr_type="chart" class="t-scatter-cls-1117"></path>
<path d="M1 0A1 1 0 1 1 1 -0.1A1 1 0 0 1 1 0" transform="matrix(5,0,0,5,457.4667,74.88)" fill="#6d47b8" fill-opacity="0.78" ecmeta_series_index="1" ecmeta_data_index="22" ecmeta_ssr_type="chart" class="t-scatter-cls-1117"></path>
<path d="M1 0A1 1 0 1 1 1 -0.1A1 1 0 0 1 1 0" transform="matrix(5,0,0,5,646.6667,376.64)" fill="#6d47b8" fill-opacity="0.78" ecmeta_series_index="1" ecmeta_data_index="23" ecmeta_ssr_type="chart" class="t-scatter-cls-1117"></path>
<style ><![CDATA[
.t-scatter-cls-1115:hover {
pointer-events:none;
}
.t-scatter-cls-1116:hover {
cursor:pointer;
fill:rgba(78,149,9,1);
}
.t-scatter-cls-1117:hover {
cursor:pointer;
fill:rgba(119,78,202,1);
}

]]>

</style>
</svg>