<svg xmlns="http://www.w3.org/2000/svg" xmlns:xlink="http://www.w3.org/1999/xlink" version="1.1" baseProfile="full" viewBox="0 0 720 400">
<rect width="720" height="400" x="0" y="0" fill="none"></rect>
<path d="M20 111C150 111 140 76.5 270 76.5L270 138.4C140 138.4 150 172.9 20 172.9Z" transform="translate(30 92)" fill="url(#t-alluvial-g0)" fill-opacity="0.45" ecmeta_series_index="0" ecmeta_data_index="0" ecmeta_ssr_type="chart" class="t-alluvial-cls-368"></path>
<path d="M20 172.9C150 172.9 140 218.5 270 218.5L270 230.3C140 230.3 150 184.6 20 184.6Z" transform="translate(30 92)" fill="url(#t-alluvial-g1)" fill-opacity="0.45" ecmeta_series_index="0" ecmeta_data_index="1" ecmeta_ssr_type="chart" class="t-alluvial-cls-369"></path>
<path d="M20 184.6C150 184.6 140 254.4 270 254.4L270 269.2C140 269.2 150 199.3 20 199.3Z" transform="translate(30 92)" fill="url(#t-alluvial-g1)" fill-opacity="0.45" ecmeta_series_index="0" ecmeta_data_index="2" ecmeta_ssr_type="chart" class="t-alluvial-cls-369"></path>
<path d="M20 0C150 0 140 0 270 0L270 76.5C140 76.5 150 76.5 20 76.5Z" transform="translate(30 92)" fill="url(#t-alluvial-g2)" fill-opacity="0.45" ecmeta_series_index="0" ecmeta_data_index="3" ecmeta_ssr_type="chart" class="t-alluvial-cls-370"></path>
<path d="M20 76.5C150 76.5 140 202.3 270 202.3L270 218.5C140 218.5 150 92.7 20 92.7Z" transform="translate(30 92)" fill="url(#t-alluvial-g3)" fill-opacity="0.45" ecmeta_series_index="0" ecmeta_data_index="4" ecmeta_ssr_type="chart" class="t-alluvial-cls-371"></path>
<path d="M20 92.7C150 92.7 140 244.1 270 244.1L270 254.4C140 254.4 150 103 20 103Z" transform="translate(30 92)" fill="url(#t-alluvial-g3)" fill-opacity="0.45" ecmeta_series_index="0" ecmeta_data_index="5" ecmeta_ssr_type="chart" class="t-alluvial-cls-371"></path>
<path d="M20 207.3C150 207.3 140 138.4 270 138.4L270 194.3C140 194.3 150 263.3 20 263.3Z" transform="translate(30 92)" fill="url(#t-alluvial-g4)" fill-opacity="0.45" ecmeta_series_index="0" ecmeta_data_index="6" ecmeta_ssr_type="chart" class="t-alluvial-cls-372"></path>
<path d="M20 263.3C150 263.3 140 230.3 270 230.3L270 236.1C140 236.1 150 269.2 20 269.2Z" transform="translate(30 92)" fill="url(#t-alluvial-g5)" fill-opacity="0.45" ecmeta_series_index="0" ecmeta_data_index="7" ecmeta_ssr_type="chart" class="t-alluvial-cls-373"></path>
<path d="M20 269.2C150 269.2 140 269.2 270 269.2L270 278C140 278 150 278 20 278Z" transform="translate(30 92)" fill="url(#t-alluvial-g5)" fill-opacity="0.45" ecmeta_series_index="0" ecmeta_data_index="8" ecmeta_ssr_type="chart" class="t-alluvial-cls-373"></path>
<path d="M290 0C420 0 410 8 540 8L540 172.9C410 172.9 420 164.9 290 164.9Z" transform="translate(30 92)" fill="url(#t-alluvial-g6)" fill-opacity="0.45" ecmeta_series_index="0" ecmeta_data_index="9" ecmeta_ssr_type="chart" class="t-alluvial-cls-374"></path>
<path d="M290 164.9C420 164.9 410 206.8 540 206.8L540 236.2C410 236.2 420 194.3 290 194.3Z" transform="translate(30 92)" fill="url(#t-alluvial-g7)" fill-opacity="0.45" ecmeta_series_index="0" ecmeta_data_index="10" ecmeta_ssr_type="chart" class="t-alluvial-cls-375"></path>
<path d="M290 202.3C420 202.3 410 172.9 540 172.9L540 193.5C410 193.5 420 222.9 290 222.9Z" transform="translate(30 92)" fill="url(#t-alluvial-g8)" fill-opacity="0.45" ecmeta_series_index="0" ecmeta_data_index="11" ecmeta_ssr_type="chart" class="t-alluvial-cls-376"></path>
<path d="M290 222.9C420 222.9 410 236.2 540 236.2L540 249.4C410 249.4 420 236.1 290 236.1Z" transform="translate(30 92)" fill="url(#t-alluvial-g9)" fill-opacity="0.45" ecmeta_series_index="0" ecmeta_data_index="12" ecmeta_ssr_type="chart" class="t-alluvial-cls-377"></path>
<path d="M290 244.1C420 244.1 410 193.5 540 193.5L540 198.8C410 198.8 420 249.4 290 249.4Z" transform="translate(30 92)" fill="url(#t-alluvial-g8)" fill-opacity="0.45" ecmeta_series_index="0" ecmeta_data_index="13" ecmeta_ssr_type="chart" class="t-alluvial-cls-376"></path>
<path d="M290 249.4C420 249.4 410 249.4 540 249.4L540 278C410 278 420 278 290 278Z" transform="translate(30 92)" fill="url(#t-alluvial-g9)" fill-opacity="0.45" ecmeta_series_index="0" ecmeta_data_index="14" ecmeta_ssr_type="chart" class="t-alluvial-cls-377"></path>
<path d="M0 111l20 0l0 88.3l-20 0Z" transform="translate(30 92)" fill="rgb(126,140,66)" ecmeta_series_index="0" ecmeta_data_index="0" ecmeta_ssr_type="chart" class="t-alluvial-cls-378"></path>
<path d="M270 0l20 0l0 194.3l-20 0Z" transform="translate(30 92)" fill="rgb(157,150,49)" ecmeta_series_index="0" ecmeta_data_index="1" ecmeta_ssr_type="chart" class="t-alluvial-cls-379"></path>
<path d="M270 202.3l20 0l0 33.9l-20 0Z" transform="translate(30 92)" fill="rgb(97,168,45)" ecmeta_series_index="0" ecmeta_data_index="2" ecmeta_ssr_type="chart" class="t-alluvial-cls-380"></path>
<path d="M270 244.1l20 0l0 33.9l-20 0Z" transform="translate(30 92)" fill="rgb(97,168,45)" ecmeta_series_index="0" ecmeta_data_index="3" ecmeta_ssr_type="chart" class="t-alluvial-cls-380"></path>
<path d="M0 0l20 0l0 103l-20 0Z" transform="translate(30 92)" fill="rgb(8,159,153)" ecmeta_series_index="0" ecmeta_data_index="4" ecmeta_ssr_type="chart" class="t-alluvial-cls-381"></path>
<path d="M0 207.3l20 0l0 70.7l-20 0Z" transform="translate(30 92)" fill="rgb(176,118,93)" ecmeta_series_index="0" ecmeta_data_index="5" ecmeta_ssr_type="chart" class="t-alluvial-cls-382"></path>
<path d="M540 8l20 0l0 190.8l-20 0Z" transform="translate(30 92)" fill="rgb(163,139,65)" ecmeta_series_index="0" ecmeta_data_index="6" ecmeta_ssr_type="chart" class="t-alluvial-cls-383"></path>
<path d="M540 206.8l20 0l0 71.2l-20 0Z" transform="translate(30 92)" fill="rgb(177,118,88)" ecmeta_series_index="0" ecmeta_data_index="7" ecmeta_ssr_type="chart" class="t-alluvial-cls-384"></path>
<defs >
<linearGradient gradientUnits="objectBoundingBox" x1="0" y1="0" x2="1" y2="0" id="t-alluvial-g0">
<stop offset="0%" stop-color="rgb(126,140,66)"></stop>
<stop offset="100%" stop-color="rgb(157,150,49)"></stop>
</linearGradient>
<linearGradient gradientUnits="objectBoundingBox" x1="0" y1="0" x2="1" y2="0" id="t-alluvial-g1">
<stop offset="0%" stop-color="rgb(126,140,66)"></stop>
<stop offset="100%" stop-color="rgb(97,168,45)"></stop>
</linearGradient>
<linearGradient gradientUnits="objectBoundingBox" x1="0" y1="0" x2="1" y2="0" id="t-alluvial-g2">
<stop offset="0%" stop-color="rgb(8,159,153)"></stop>
<stop offset="100%" stop-color="rgb(157,150,49)"></stop>
</linearGradient>
<linearGradient gradientUnits="objectBoundingBox" x1="0" y1="0" x2="1" y2="0" id="t-alluvial-g3">
<stop offset="0%" stop-color="rgb(8,159,153)"></stop>
<stop offset="100%" stop-color="rgb(97,168,45)"></stop>
</linearGradient>
<linearGradient gradientUnits="objectBoundingBox" x1="0" y1="0" x2="1" y2="0" id="t-alluvial-g4">
<stop offset="0%" stop-color="rgb(176,118,93)"></stop>
<stop offset="100%" stop-color="rgb(157,150,49)"></stop>
</linearGradient>
<linearGradient gradientUnits="objectBoundingBox" x1="0" y1="0" x2="1" y2="0" id="t-alluvial-g5">
<stop offset="0%" stop-color="rgb(176,118,93)"></stop>
<stop offset="100%" stop-color="rgb(97,168,45)"></stop>
</linearGradient>
<linearGradient gradientUnits="objectBoundingBox" x1="0" y1="0" x2="1" y2="0" id="t-alluvial-g6">
<stop offset="0%" stop-color="rgb(157,150,49)"></stop>
<stop offset="100%" stop-color="rgb(163,139,65)"></stop>
</linearGradient>
<linearGradient gradientUnits="objectBoundingBox" x1="0" y1="0" x2="1" y2="0" id="t-alluvial-g7">
<stop offset="0%" stop-color="rgb(157,150,49)"></stop>
<stop offset="100%" stop-color="rgb(177,118,88)"></stop>
</linearGradient>
<linearGradient gradientUnits="objectBoundingBox" x1="0" y1="0" x2="1" y2="0" id="t-alluvial-g8">
<stop offset="0%" stop-color="rgb(97,168,45)"></stop>
<stop offset="100%" stop-color="rgb(163,139,65)"></stop>
</linearGradient>
<linearGradient gradientUnits="objectBoundingBox" x1="0" y1="0" x2="1" y2="0" id="t-alluvial-g9">
<stop offset="0%" stop-color="rgb(97,168,45)"></stop>
<stop offset="100%" stop-color="rgb(177,118,88)"></stop>
</linearGradient>
</defs>
<style ><![CDATA[
.t-alluvial-cls-368:hover {
cursor:pointer;
fill:[object Object];
}
.t-alluvial-cls-369:hover {
cursor:pointer;
fill:[object Object];
}
.t-alluvial-cls-370:hover {
cursor:pointer;
fill:[object Object];
}
.t-alluvial-cls-371:hover {
cursor:pointer;
fill:[object Object];
}
.t-alluvial-cls-372:hover {
cursor:pointer;
fill:[object Object];
}
.t-alluvial-cls-373:hover {
cursor:pointer;
fill:[object Object];
}
.t-alluvial-cls-374:hover {
cursor:pointer;
fill:[object Object];
}
.t-alluvial-cls-375:hover {
cursor:pointer;
fill:[object Object];
}
.t-alluvial-cls-376:hover {
cursor:pointer;
fill:[object Object];
}
.t-alluvial-cls-377:hover {
cursor:pointer;
fill:[object Object];
}
.t-alluvial-cls-378:hover {
cursor:pointer;
fill:rgba(138,154,72,1);
}
.t-alluvial-cls-379:hover {
cursor:pointer;
fill:rgba(172,165,53,1);
}
.t-alluvial-cls-380:hover {
cursor:pointer;
fill:rgba(106,184,49,1);
}
.t-alluvial-cls-381:hover {
cursor:pointer;
fill:rgba(8,174,168,1);
}
.t-alluvial-cls-382:hover {
cursor:pointer;
fill:rgba(193,129,102,1);
}
.t-alluvial-cls-383:hover {
cursor:pointer;
fill:rgba(179,152,71,1);
}
.t-alluvial-cls-384:hover {
cursor:pointer;
fill:rgba(194,129,96,1);
}

]]>

</style>
</svg>