<svg xmlns="http://www.w3.org/2000/svg" xmlns:xlink="http://www.w3.org/1999/xlink" version="1.1" baseProfile="full" viewBox="0 0 720 400">
<rect width="720" height="400" x="0" y="0" fill="none"></rect>
<path d="M16.5 16L16.5 384" fill="none" pointer-events="visible" stroke="#1a2a24" class="t-population-pyramid-cls-98"></path>
<path d="M54.5 16L54.5 384" fill="none" pointer-events="visible" stroke="#1a2a24" class="t-population-pyramid-cls-98"></path>
<path d="M207.5 16L207.5 384" fill="none" pointer-events="visible" stroke="#1a2a24" class="t-population-pyramid-cls-98"></path>
<path d="M360.5 16L360.5 384" fill="none" pointer-events="visible" stroke="#1a2a24" class="t-population-pyramid-cls-98"></path>
<path d="M513.5 16L513.5 384" fill="none" pointer-events="visible" stroke="#1a2a24" class="t-population-pyramid-cls-98"></path>
<path d="M666.5 16L666.5 384" fill="none" pointer-events="visible" stroke="#1a2a24" class="t-population-pyramid-cls-98"></path>
<path d="M704.5 16L704.5 384" fill="none" pointer-events="visible" stroke="#1a2a24" class="t-population-pyramid-cls-98"></path>
<path d="M16.5 384L16.5 16" fill="none" pointer-events="visible" stroke="#34443d" stroke-linecap="round" class="t-population-pyramid-cls-98"></path>
<path d="M118.4 346.3L360 346.3L360 375.7L118.4 375.7A3 3 0 0 1 115.4 372.7L115.4 349.3A3 3 0 0 1 118.4 346.3Z" fill="#61a82d" ecmeta_series_index="0" ecmeta_data_index="0" ecmeta_ssr_type="chart" class="t-population-pyramid-cls-99"></path>
<path d="M103.1 300.3L360 300.3L360 329.7L103.1 329.7A3 3 0 0 1 100.1 326.7L100.1 303.3A3 3 0 0 1 103.1 300.3Z" fill="#61a82d" ecmeta_series_index="0" ecmeta_data_index="1" ecmeta_ssr_type="chart" class="t-population-pyramid-cls-99"></path>
<path d="M87.8 254.3L360 254.3L360 283.7L87.8 283.7A3 3 0 0 1 84.8 280.7L84.8 257.3A3 3 0 0 1 87.8 254.3Z" fill="#61a82d" ecmeta_series_index="0" ecmeta_data_index="2" ecmeta_ssr_type="chart" class="t-population-pyramid-cls-99"></path>
<path d="M72.5 208.3L360 208.3L360 237.7L72.5 237.7A3 3 0 0 1 69.5 234.7L69.5 211.3A3 3 0 0 1 72.5 208.3Z" fill="#61a82d" ecmeta_series_index="0" ecmeta_data_index="3" ecmeta_ssr_type="chart" class="t-population-pyramid-cls-99"></path>
<path d="M118.4 162.3L360 162.3L360 191.7L118.4 191.7A3 3 0 0 1 115.4 188.7L115.4 165.3A3 3 0 0 1 118.4 162.3Z" fill="#61a82d" ecmeta_series_index="0" ecmeta_data_index="4" ecmeta_ssr_type="chart" class="t-population-pyramid-cls-99"></path>
<path d="M164.2 116.3L360 116.3L360 145.7L164.2 145.7A3 3 0 0 1 161.2 142.7L161.2 119.3A3 3 0 0 1 164.2 116.3Z" fill="#61a82d" ecmeta_series_index="0" ecmeta_data_index="5" ecmeta_ssr_type="chart" class="t-population-pyramid-cls-99"></path>
<path d="M225.4 70.3L360 70.3L360 99.7L225.4 99.7A3 3 0 0 1 222.4 96.7L222.4 73.3A3 3 0 0 1 225.4 70.3Z" fill="#61a82d" ecmeta_series_index="0" ecmeta_data_index="6" ecmeta_ssr_type="chart" class="t-population-pyramid-cls-99"></path>
<path d="M263.6 24.3L360 24.3L360 53.7L263.6 53.7A3 3 0 0 1 260.6 50.7L260.6 27.3A3 3 0 0 1 263.6 24.3Z" fill="#61a82d" ecmeta_series_index="0" ecmeta_data_index="7" ecmeta_ssr_type="chart" class="t-population-pyramid-cls-99"></path>
<path d="M360 346.3L594 346.3A3 3 0 0 1 597 349.3L597 372.7A3 3 0 0 1 594 375.7L360 375.7L360 346.3Z" fill="#8a66d9" ecmeta_series_index="1" ecmeta_data_index="0" ecmeta_ssr_type="chart" class="t-population-pyramid-cls-100"></path>
<path d="M360 300.3L609.3 300.3A3 3 0 0 1 612.3 303.3L612.3 326.7A3 3 0 0 1 609.3 329.7L360 329.7L360 300.3Z" fill="#8a66d9" ecmeta_series_index="1" ecmeta_data_index="1" ecmeta_ssr_type="chart" class="t-population-pyramid-cls-100"></path>
<path d="M360 254.3L647.5 254.3A3 3 0 0 1 650.5 257.3L650.5 280.7A3 3 0 0 1 647.5 283.7L360 283.7L360 254.3Z" fill="#8a66d9" ecmeta_series_index="1" ecmeta_data_index="2" ecmeta_ssr_type="chart" class="t-population-pyramid-cls-100"></path>
<path d="M360 208.3L670.4 208.3A3 3 0 0 1 673.4 211.3L673.4 234.7A3 3 0 0 1 670.4 237.7L360 237.7L360 208.3Z" fill="#8a66d9" ecmeta_series_index="1" ecmeta_data_index="3" ecmeta_ssr_type="chart" class="t-population-pyramid-cls-100"></path>
<path d="M360 162.3L632.2 162.3A3 3 0 0 1 635.2 165.3L635.2 188.7A3 3 0 0 1 632.2 191.7L360 191.7L360 162.3Z" fill="#8a66d9" ecmeta_series_index="1" ecmeta_data_index="4" ecmeta_ssr_type="chart" class="t-population-pyramid-cls-100"></path>
<path d="M360 116.3L586.3 116.3A3 3 0 0 1 589.3 119.3L589.3 142.7A3 3 0 0 1 586.3 145.7L360 145.7L360 116.3Z" fill="#8a66d9" ecmeta_series_index="1" ecmeta_data_index="5" ecmeta_ssr_type="chart" class="t-population-pyramid-cls-100"></path>
<path d="M360 70.3L525.2 70.3A3 3 0 0 1 528.2 73.3L528.2 96.7A3 3 0 0 1 525.2 99.7L360 99.7L360 70.3Z" fill="#8a66d9" ecmeta_series_index="1" ecmeta_data_index="6" ecmeta_ssr_type="chart" class="t-population-pyramid-cls-100"></path>
<path d="M360 24.3L509.9 24.3A3 3 0 0 1 512.9 27.3L512.9 50.7A3 3 0 0 1 509.9 53.7L360 53.7L360 24.3Z" fill="#8a66d9" ecmeta_series_index="1" ecmeta_data_index="7" ecmeta_ssr_type="chart" class="t-population-pyramid-cls-100"></path>
<style ><![CDATA[
.t-population-pyramid-cls-98:hover {
pointer-events:none;
}
.t-population-pyramid-cls-99:hover {
cursor:pointer;
fill:rgba(106,184,49,1);
}
.t-population-pyramid-cls-100:hover {
cursor:pointer;
fill:rgba(151,112,238,1);
}

]]>

</style>
</svg>