<svg xmlns="http://www.w3.org/2000/svg" xmlns:xlink="http://www.w3.org/1999/xlink" version="1.1" baseProfile="full" viewBox="0 0 720 400">
<rect width="720" height="400" x="0" y="0" fill="none"></rect>
<path d="M0 138C111.6 138 111.6 29.6 223.2 29.6" transform="translate(115.2 96)" fill="none" pointer-events="visible" stroke="#34443d" stroke-width="1.4" class="t-tree-cls-348"></path>
<path d="M223.2 29.6C334.8 29.6 334.8 19.7 446.4 19.7" transform="translate(115.2 96)" fill="none" pointer-events="visible" stroke="#34443d" stroke-width="1.4" class="t-tree-cls-348"></path>
<path d="M223.2 29.6C334.8 29.6 334.8 39.4 446.4 39.4" transform="translate(115.2 96)" fill="none" pointer-events="visible" stroke="#34443d" stroke-width="1.4" class="t-tree-cls-348"></path>
<path d="M0 138C111.6 138 111.6 98.6 223.2 98.6" transform="translate(115.2 96)" fill="none" pointer-events="visible" stroke="#34443d" stroke-width="1.4" class="t-tree-cls-348"></path>
<path d="M223.2 98.6C334.8 98.6 334.8 78.9 446.4 78.9" transform="translate(115.2 96)" fill="none" pointer-events="visible" stroke="#34443d" stroke-width="1.4" class="t-tree-cls-348"></path>
<path d="M223.2 98.6C334.8 98.6 334.8 98.6 446.4 98.6" transform="translate(115.2 96)" fill="none" pointer-events="visible" stroke="#34443d" stroke-width="1.4" class="t-tree-cls-348"></path>
<path d="M223.2 98.6C334.8 98.6 334.8 118.3 446.4 118.3" transform="translate(115.2 96)" fill="none" pointer-events="visible" stroke="#34443d" stroke-width="1.4" class="t-tree-cls-348"></path>
<path d="M0 138C111.6 138 111.6 177.4 223.2 177.4" transform="translate(115.2 96)" fill="none" pointer-events="visible" stroke="#34443d" stroke-width="1.4" class="t-tree-cls-348"></path>
<path d="M223.2 177.4C334.8 177.4 334.8 157.7 446.4 157.7" transform="translate(115.2 96)" fill="none" pointer-events="visible" stroke="#34443d" stroke-width="1.4" class="t-tree-cls-348"></path>
<path d="M223.2 177.4C334.8 177.4 334.8 177.4 446.4 177.4" transform="translate(115.2 96)" fill="none" pointer-events="visible" stroke="#34443d" stroke-width="1.4" class="t-tree-cls-348"></path>
<path d="M223.2 177.4C334.8 177.4 334.8 197.1 446.4 197.1" transform="translate(115.2 96)" fill="none" pointer-events="visible" stroke="#34443d" stroke-width="1.4" class="t-tree-cls-348"></path>
<path d="M0 138C111.6 138 111.6 246.4 223.2 246.4" transform="translate(115.2 96)" fill="none" pointer-events="visible" stroke="#34443d" stroke-width="1.4" class="t-tree-cls-348"></path>
<path d="M223.2 246.4C334.8 246.4 334.8 236.6 446.4 236.6" transform="translate(115.2 96)" fill="none" pointer-events="visible" stroke="#34443d" stroke-width="1.4" class="t-tree-cls-348"></path>
<path d="M223.2 246.4C334.8 246.4 334.8 256.3 446.4 256.3" transform="translate(115.2 96)" fill="none" pointer-events="visible" stroke="#34443d" stroke-width="1.4" class="t-tree-cls-348"></path>
<path d="M1 0A1 1 0 1 1 1 -0.1A1 1 0 0 1 1 0" transform="matrix(5,0,0,5,115.2,234)" fill="#fff" stroke="#61a82d" stroke-width="0.4" ecmeta_series_index="0" ecmeta_data_index="1" ecmeta_ssr_type="chart" class="t-tree-cls-349"></path>
<path d="M1 0A1 1 0 1 1 1 -0.1A1 1 0 0 1 1 0" transform="matrix(5,0,0,5,338.4,125.5714)" fill="#fff" stroke="#61a82d" stroke-width="0.4" ecmeta_series_index="0" ecmeta_data_index="2" ecmeta_ssr_type="chart" class="t-tree-cls-349"></path>
<path d="M1 0A1 1 0 1 1 1 -0.1A1 1 0 0 1 1 0" transform="matrix(5,0,0,5,561.6,115.7143)" fill="#fff" stroke="#61a82d" stroke-width="0.4" ecmeta_series_index="0" ecmeta_data_index="3" ecmeta_ssr_type="chart" class="t-tree-cls-349"></path>
<path d="M1 0A1 1 0 1 1 1 -0.1A1 1 0 0 1 1 0" transform="matrix(5,0,0,5,561.6,135.4286)" fill="#fff" stroke="#61a82d" stroke-width="0.4" ecmeta_series_index="0" ecmeta_data_index="4" ecmeta_ssr_type="chart" class="t-tree-cls-349"></path>
<path d="M1 0A1 1 0 1 1 1 -0.1A1 1 0 0 1 1 0" transform="matrix(5,0,0,5,338.4,194.5714)" fill="#fff" stroke="#61a82d" stroke-width="0.4" ecmeta_series_index="0" ecmeta_data_index="5" ecmeta_ssr_type="chart" class="t-tree-cls-349"></path>
<path d="M1 0A1 1 0 1 1 1 -0.1A1 1 0 0 1 1 0" transform="matrix(5,0,0,5,561.6,174.8571)" fill="#fff" stroke="#61a82d" stroke-width="0.4" ecmeta_series_index="0" ecmeta_data_index="6" ecmeta_ssr_type="chart" class="t-tree-cls-349"></path>
<path d="M1 0A1 1 0 1 1 1 -0.1A1 1 0 0 1 1 0" transform="matrix(5,0,0,5,561.6,194.5714)" fill="#fff" stroke="#61a82d" stroke-width="0.4" ecmeta_series_index="0" ecmeta_data_index="7" ecmeta_ssr_type="chart" class="t-tree-cls-349"></path>
<path d="M1 0A1 1 0 1 1 1 -0.1A1 1 0 0 1 1 0" transform="matrix(5,0,0,5,561.6,214.2857)" fill="#fff" stroke="#61a82d" stroke-width="0.4" ecmeta_series_index="0" ecmeta_data_index="8" ecmeta_ssr_type="chart" class="t-tree-cls-349"></path>
<path d="M1 0A1 1 0 1 1 1 -0.1A1 1 0 0 1 1 0" transform="matrix(5,0,0,5,338.4,273.4286)" fill="#fff" stroke="#61a82d" stroke-width="0.4" ecmeta_series_index="0" ecmeta_data_index="9" ecmeta_ssr_type="chart" class="t-tree-cls-349"></path>
<path d="M1 0A1 1 0 1 1 1 -0.1A1 1 0 0 1 1 0" transform="matrix(5,0,0,5,561.6,253.7143)" fill="#fff" stroke="#61a82d" stroke-width="0.4" ecmeta_series_index="0" ecmeta_data_index="10" ecmeta_ssr_type="chart" class="t-tree-cls-349"></path>
<path d="M1 0A1 1 0 1 1 1 -0.1A1 1 0 0 1 1 0" transform="matrix(5,0,0,5,561.6,273.4286)" fill="#fff" stroke="#61a82d" stroke-width="0.4" ecmeta_series_index="0" ecmeta_data_index="11" ecmeta_ssr_type="chart" class="t-tree-cls-349"></path>
<path d="M1 0A1 1 0 1 1 1 -0.1A1 1 0 0 1 1 0" transform="matrix(5,0,0,5,561.6,293.1429)" fill="#fff" stroke="#61a82d" stroke-width="0.4" ecmeta_series_index="0" ecmeta_data_index="12" ecmeta_ssr_type="chart" class="t-tree-cls-349"></path>
<path d="M1 0A1 1 0 1 1 1 -0.1A1 1 0 0 1 1 0" transform="matrix(5,0,0,5,338.4,342.4286)" fill="#fff" stroke="#61a82d" stroke-width="0.4" ecmeta_series_index="0" ecmeta_data_index="13" ecmeta_ssr_type="chart" class="t-tree-cls-349"></path>
<path d="M1 0A1 1 0 1 1 1 -0.1A1 1 0 0 1 1 0" transform="matrix(5,0,0,5,561.6,332.5714)" fill="#fff" stroke="#61a82d" stroke-width="0.4" ecmeta_series_index="0" ecmeta_data_index="14" ecmeta_ssr_type="chart" class="t-tree-cls-349"></path>
<path d="M1 0A1 1 0 1 1 1 -0.1A1 1 0 0 1 1 0" transform="matrix(5,0,0,5,561.6,352.2857)" fill="#fff" stroke="#61a82d" stroke-width="0.4" ecmeta_series_index="0" ecmeta_data_index="15" ecmeta_ssr_type="chart" class="t-tree-cls-349"></path>
<style ><![CDATA[
.t-tree-cls-348:hover {
cursor:pointer;
}
.t-tree-cls-349:hover {
cursor:pointer;
fill:rgba(255,255,255,1);
}

]]>

</style>
</svg>